# xmcd
#
# Track frame offsets:
# 150
# 28345
# 64941
# 98395
# 129411
# 145680
# 177789
#
# Disc length: 2759 seconds
#
#
# Revision: 0
# Processed by: cddbd v1.5.2PL0 Copyright (c) Steve Scherf et al.
# Submitted via: FreeRIP 2.945 
#
DISCID=570ac507
DTITLE=Barry White - The Man
DYEAR=1900
DGENRE=Soul
TTITLE0=Look At Her
TTITLE1=Your Sweetness Is My Weakness
TTITLE2=Sha La La Means I Love You
TTITLE3=September When I First Met You
TTITLE4=It's Only Love Doing Its Thing
TTITLE5=Just The Way You Are
TTITLE6=Early Years
EXTD=
EXTT0=
EXTT1=
EXTT2=
EXTT3=
EXTT4=
EXTT5=
EXTT6=
PLAYORDER=
